<?xml version="1.0" encoding="utf-8"?>
<!-- Generator: Adobe Illustrator 23.0.5, SVG Export Plug-In . SVG Version: 6.00 Build 0)  -->
<svg version="1.1" id="Capa_1" xmlns="http://www.w3.org/2000/svg" xmlns:xlink="http://www.w3.org/1999/xlink" x="0px" y="0px"
	 viewBox="0 0 250 100" style="enable-background:new 0 0 250 100;" xml:space="preserve">
<style type="text/css">
	.st0{fill:#003E7E;}
	.st1{fill:#6D6E71;}
</style>
<g id="layer1" transform="translate(160.67598,-85.595245)">
	<g id="g3496" transform="translate(33.547298,-72.532448)">
		<path id="path3248" class="st0" d="M-123.14,189.52h6.2l1.29,24.82h-5.22l-0.03-5.25h-6.6l-2.26,5.25h-5.2L-123.14,189.52z
			 M-125.76,204.97h4.86l-0.03-11.12H-121L-125.76,204.97z"/>
		<path id="path3250" class="st0" d="M-108.63,189.52h4.77l-5.25,24.82h-4.77L-108.63,189.52z"/>
		<path id="path3252" class="st0" d="M-100.31,189.52h4.77l-5.25,24.82h-4.77L-100.31,189.52z"/>
		<path id="path3254" class="st0" d="M-91.48,205.7l-0.31,1.51c-0.48,2.19-0.33,4.33,1.43,4.33c1.59,0,2.51-1.21,3.28-3.5h4.29
			c-1.1,4.34-3.69,6.77-8.21,6.77c-6.95,0-6.09-5.34-5.1-10.02c1.06-5,3.03-9.64,9.48-9.64c5.59,0,6.04,3.74,4.82,9.47l-0.22,1.07
			L-91.48,205.7z M-85.98,202.83c0.5-2.86,0.48-4.45-1.48-4.45c-1.96,0-2.89,1.98-3.25,3.72l-0.15,0.73L-85.98,202.83z"/>
		<path id="path3256" class="st0" d="M-77.37,195.64h4.59l-0.48,2.19h0.07c1.24-1.7,3.23-2.7,5.34-2.67c2.98,0,4.41,1.62,3.62,5.31
			l-2.94,13.84h-4.77l2.74-12.88c0.4-1.84-0.08-2.59-1.51-2.59c-1.63,0-2.75,1.01-3.19,3.09l-2.63,12.41h-4.77L-77.37,195.64z"/>
		<path id="path3258" class="st0" d="M-51.69,202.22l-0.87,4.1h-9.79l0.86-4.1H-51.69z"/>
		<path id="path3260" class="st0" d="M-45.73,189.52h8.37c4.09,0,6.72,1.53,5.73,6.28c-0.57,2.67-2.28,4.73-4.9,5.41v0.08
			c2.66,0.38,3.99,2.46,3.28,5.76c-0.82,3.89-3.45,7.26-9.28,7.26h-8.47L-45.73,189.52z M-42.89,199.69h1.43
			c2.74,0,4.19-0.95,4.69-3.26c0.49-2.3-0.48-3.23-2.93-3.23h-1.8L-42.89,199.69z M-45.21,210.63h1.95c2.39,0,4.21-0.86,4.82-3.75
			c0.61-2.89-0.84-3.72-3.03-3.72h-2.15L-45.21,210.63z"/>
		<path id="path3262" class="st0" d="M-27.87,195.64h4.59l-0.53,2.51h0.07c1.36-1.8,2.96-2.98,4.94-2.98c0.29,0,0.57,0.02,0.86,0.07
			l-0.98,4.58c-0.48-0.04-0.99-0.07-1.47-0.07c-2.06-0.08-3.87,1.35-4.26,3.37l-2.39,11.21h-4.77L-27.87,195.64z"/>
		<path id="path3264" class="st0" d="M-17.56,201.36l0.1-0.48c0.92-4.29,4.18-5.76,7.79-5.76c5.7,0,6.27,2.35,5.55,5.73l-2.09,9.82
			c-0.37,1.74-0.43,2.54-0.18,3.62h-4.58c-0.15-0.64-0.22-1.29-0.18-1.95h-0.07c-1.53,1.95-2.98,2.43-5.27,2.43
			c-3.34,0-3.91-2.86-3.38-5.34c0.75-3.52,2.47-4.93,5.96-5.84l2.84-0.68c1.51-0.39,2.11-0.95,2.39-2.19
			c0.3-1.43-0.14-2.29-1.74-2.29c-1.46,0-2.43,0.95-2.74,2.43l-0.11,0.52L-17.56,201.36z M-9.58,204.97
			c-0.69,0.44-1.45,0.76-2.25,0.95c-2.03,0.42-3,1.36-3.34,3.03c-0.3,1.43-0.03,2.6,1.26,2.6c1.71-0.01,3.19-1.19,3.56-2.86
			L-9.58,204.97z"/>
		<path id="path3266" class="st0" d="M6.42,212.33H6.36c-1.43,1.75-2.89,2.47-4.77,2.47c-3.93,0-5.13-2.86-3.65-9.83
			c1.48-6.97,3.9-9.82,7.82-9.82c1.8,0,2.86,0.73,3.55,2.21h0.07l1.67-7.85h4.77l-5.25,24.82H5.99L6.42,212.33z M3.94,211.12
			c2.11,0,2.98-2.09,3.82-6.15s0.89-6.15-1.23-6.15c-2.12,0-2.94,2.09-3.82,6.15S1.86,211.12,3.94,211.12z"/>
		<path id="path3268" class="st0" d="M19.22,189.52h4.77l-5.25,24.82h-4.79L19.22,189.52z"/>
		<path id="path3270" class="st0" d="M28.04,205.7l-0.31,1.51c-0.48,2.19-0.34,4.33,1.43,4.33c1.59,0,2.51-1.21,3.27-3.5h4.29
			c-1.09,4.34-3.7,6.77-8.21,6.77c-6.94,0-6.08-5.34-5.09-10.02c1.06-5,3.02-9.64,9.47-9.64c5.6,0,6.05,3.74,4.83,9.47l-0.23,1.07
			L28.04,205.7z M33.54,202.83c0.51-2.86,0.48-4.45-1.49-4.45c-1.91,0-2.86,1.98-3.25,3.72l-0.15,0.73L33.54,202.83z"/>
		<path id="path3272" class="st0" d="M37.65,216.85c0.41,0.07,0.82,0.1,1.23,0.1c1.77,0,2.63-0.95,3.13-2.63l-1.27-18.68h4.99
			l0.04,12.91h0.07L51,195.66h4.77l-8.22,17.42c-3.04,6.46-4.29,7.36-8.75,7.36h-1.92L37.65,216.85z"/>
		<polygon id="polygon3276" class="st0" points="-175.54,214.85 -175.85,213.13 -176.16,214.85 		"/>
		<rect id="rect3278" x="-182.7" y="212.97" class="st0" width="0.81" height="2.71"/>
		<path id="path3280" class="st0" d="M-158.01,210.2h-32.41c-0.4,0-0.72,0.32-0.72,0.72c0,0.19,0.08,0.37,0.21,0.51l6.53,6.53
			c1.31,1.31,3.08,2.04,4.93,2.04h10.5c1.85,0,3.62-0.73,4.93-2.04l6.53-6.53c0.28-0.28,0.28-0.73,0-1.01
			C-157.64,210.28-157.82,210.2-158.01,210.2L-158.01,210.2z M-181.22,215.72c0,0.23-0.16,0.44-0.4,0.48
			c0.05,0.16,0.18,0.29,0.34,0.34l0,0v0.2h-0.43c-0.26-0.1-0.48-0.29-0.63-0.52h-0.56c-0.26,0-0.48-0.21-0.48-0.48c0,0,0,0,0,0
			v-2.79c0-0.26,0.21-0.48,0.48-0.48c0,0,0,0,0,0h1.2c0.26,0,0.48,0.21,0.48,0.48c0,0,0,0,0,0L-181.22,215.72z M-177.97,215.72
			c0,0.26-0.21,0.48-0.48,0.48c0,0,0,0,0,0h-1.19c-0.26,0-0.48-0.21-0.48-0.48c0,0,0,0,0,0v-3.26h0.66v3.22h0.81v-3.22h0.67
			L-177.97,215.72z M-175.22,216.2l-0.19-0.83h-0.88l-0.19,0.83h-0.66l0.84-3.74h0.9l0.86,3.73L-175.22,216.2z M-172.01,216.2h-1.66
			v-3.74h0.67v3.11h0.99V216.2z M-170.54,216.2h-0.67v-3.74h0.67V216.2z M-168.04,212.98h-0.53v3.22h-0.67v-3.22h-0.53v-0.52h1.74
			V212.98z M-165.8,214.47v1.73h-0.62v-1.73l-1.03-2.01h0.74l0.6,1.3l0.6-1.3h0.74L-165.8,214.47z"/>
		<path id="path3282" class="st0" d="M-164.56,198.22h-3.25v-1.6h2.46c0.52-0.04,0.93-0.44,1-0.95v-3.28
			c-0.06-0.61-0.6-1.07-1.21-1.04h-3.77v12.53h4.81c0.63-0.11,1.11-0.61,1.22-1.24v-3.16C-163.4,198.83-163.91,198.32-164.56,198.22
			L-164.56,198.22z"/>
		<path id="path3284" class="st0" d="M-156.37,190.38l-7.88-7.89c-1.16-1.16-2.73-1.81-4.37-1.81h-11.17
			c-1.64,0-3.21,0.65-4.37,1.81l-7.89,7.89c-1.16,1.16-1.81,2.73-1.81,4.38v11.58c0,1.37,1.11,2.48,2.48,2.48c0,0,0,0,0,0h34.34
			c1.37,0,2.49-1.11,2.49-2.49v-11.57C-154.56,193.12-155.21,191.55-156.37,190.38z M-178.89,205.49c0,0,0.16-0.34-0.23-1.36
			l-1.19-3.1h-4.07v-1.6h3.5l-2.65-6.95l-4.29,11.8c-0.13,0.39-0.15,0.81-0.04,1.21h-2.51c0.12,0,0.48-0.22,0.95-1.6l5.02-14.23
			h3.34l5.81,14.97c0,0,0.3,0.76,0.62,0.86H-178.89z M-173.94,198.26h-2.34v-1.6h2.34V198.26z M-159.96,202.72
			c0,1.53-1.24,2.77-2.77,2.77h0h-10.28c0.48-0.48,0.39-1.6,0.39-1.6v-12.18c0-1.63-0.52-2.06-0.52-2.06h9.84
			c1.38,0.07,2.47,1.21,2.47,2.6v2.9c0,1.14-0.92,2.06-2.05,2.06c0,0,0,0,0,0h0.22c1.49-0.01,2.7,1.2,2.71,2.69c0,0,0,0.01,0,0.01
			L-159.96,202.72z"/>
		<path id="path3288" class="st1" d="M-74.16,231.35c0.02,0.45-0.03,0.9-0.15,1.33c-0.22,0.87-1.02,1.46-1.91,1.43
			c-0.27,0.01-0.53-0.05-0.77-0.17c-0.23-0.11-0.43-0.27-0.58-0.48c0,0,0,0-0.03,0s0,0,0,0.02v0.45c0.01,0.05-0.03,0.1-0.08,0.1
			c-0.01,0-0.01,0-0.02,0h-0.54c-0.05,0.01-0.09-0.03-0.1-0.08c0-0.01,0-0.02,0-0.03v-7.17c0-0.07,0.03-0.1,0.1-0.1h0.54
			c0.05-0.01,0.1,0.03,0.1,0.08c0,0.01,0,0.01,0,0.02v2.48c-0.01,0.01-0.01,0.02,0,0.03c0,0,0.02,0,0.04,0
			c0.15-0.21,0.35-0.37,0.58-0.48c0.24-0.12,0.5-0.18,0.77-0.17c0.45-0.02,0.89,0.12,1.25,0.39c0.34,0.27,0.58,0.64,0.69,1.05
			C-74.18,230.49-74.15,230.92-74.16,231.35L-74.16,231.35z M-74.95,232.13c0.03-0.26,0.05-0.51,0.04-0.77
			c0.01-0.27-0.01-0.54-0.06-0.81c-0.04-0.18-0.1-0.36-0.19-0.52c-0.09-0.22-0.24-0.42-0.44-0.55c-0.21-0.14-0.47-0.22-0.73-0.21
			c-0.25-0.01-0.49,0.07-0.69,0.21c-0.2,0.14-0.34,0.34-0.42,0.57c-0.07,0.16-0.13,0.33-0.15,0.51c-0.04,0.26-0.05,0.53-0.05,0.8
			c-0.01,0.26,0.01,0.52,0.05,0.78c0.03,0.16,0.08,0.32,0.14,0.48c0.08,0.23,0.23,0.44,0.42,0.59c0.2,0.15,0.45,0.23,0.7,0.22
			c0.27,0.01,0.54-0.07,0.76-0.22c0.21-0.15,0.37-0.36,0.44-0.6C-75.02,232.45-74.97,232.29-74.95,232.13L-74.95,232.13z"/>
		<path id="path3290" class="st1" d="M-73.04,236.01v-0.42c-0.01-0.05,0.02-0.1,0.07-0.1c0.01,0,0.02,0,0.03,0h0.04
			c0.22,0,0.44-0.04,0.64-0.12c0.17-0.09,0.3-0.24,0.39-0.41c0.14-0.29,0.26-0.6,0.35-0.91c0-0.03,0-0.05,0-0.06l-1.78-5.17v-0.04
			c0-0.05,0.03-0.07,0.09-0.07h0.56c0.06,0,0.11,0.03,0.13,0.09l1.36,4.24c0.01,0.01,0.02,0.01,0.03,0c0.01,0.01,0.02,0.01,0.03,0
			l1.33-4.24c0.02-0.05,0.07-0.09,0.12-0.09h0.55c0.08,0,0.1,0.04,0.08,0.11l-1.94,5.66c-0.12,0.36-0.28,0.71-0.48,1.04
			c-0.13,0.21-0.32,0.38-0.55,0.48c-0.3,0.1-0.61,0.15-0.93,0.13h-0.07C-73.02,236.11-73.04,236.08-73.04,236.01L-73.04,236.01z"/>
		<path id="path3292" class="st1" d="M-62.1,233.93l-1.31-2.91c-0.01-0.03-0.03-0.04-0.06-0.04h-0.98c-0.03,0-0.05,0.02-0.05,0.04
			c0,0,0,0.01,0,0.01v2.86c0,0.03-0.01,0.07-0.03,0.09c-0.02,0.02-0.06,0.04-0.09,0.04h-1.23c-0.03,0-0.06-0.01-0.09-0.04
			c-0.03-0.02-0.04-0.06-0.04-0.09v-7.12c0-0.03,0.01-0.07,0.04-0.09c0.02-0.02,0.05-0.03,0.09-0.03h3.01
			c0.41-0.01,0.82,0.09,1.18,0.27c0.33,0.18,0.61,0.45,0.79,0.78c0.19,0.36,0.28,0.76,0.28,1.16c0.01,0.44-0.11,0.87-0.36,1.23
			c-0.24,0.34-0.6,0.59-1,0.72c-0.03,0.01-0.04,0.05-0.03,0.08l1.43,2.97c0,0.02,0,0.04,0,0.06c0,0.06-0.04,0.09-0.11,0.09h-1.29
			C-62.02,234.01-62.07,233.98-62.1,233.93L-62.1,233.93z M-64.49,228v1.79c0,0.04,0,0.06,0.05,0.06h1.35
			c0.27,0.01,0.52-0.09,0.72-0.26c0.18-0.18,0.28-0.43,0.28-0.69c0-0.26-0.1-0.5-0.28-0.69c-0.2-0.18-0.45-0.28-0.72-0.27h-1.38
			c-0.02,0-0.05,0.01-0.05,0.03L-64.49,228z"/>
		<path id="path3294" class="st1" d="M-58.36,233.79c-0.4-0.22-0.73-0.55-0.95-0.95c-0.24-0.42-0.35-0.9-0.34-1.39v-2.24
			c-0.01-0.48,0.11-0.96,0.34-1.38c0.22-0.4,0.55-0.73,0.95-0.95c0.44-0.22,0.93-0.34,1.43-0.33c0.5-0.01,1,0.1,1.46,0.33
			c0.4,0.22,0.73,0.55,0.95,0.95c0.24,0.42,0.36,0.9,0.35,1.38v2.25c0.01,0.49-0.11,0.97-0.35,1.4c-0.22,0.4-0.55,0.73-0.95,0.95
			c-0.45,0.23-0.95,0.34-1.46,0.33C-57.43,234.14-57.92,234.02-58.36,233.79L-58.36,233.79z M-55.98,232.48
			c0.24-0.26,0.36-0.6,0.35-0.95v-2.31c0.01-0.35-0.11-0.69-0.35-0.95c-0.25-0.26-0.6-0.39-0.95-0.37
			c-0.33-0.02-0.66,0.09-0.91,0.32c-0.24,0.26-0.36,0.6-0.35,0.95v2.31c-0.01,0.35,0.12,0.69,0.35,0.95
			c0.24,0.25,0.58,0.39,0.93,0.37c0.34,0.03,0.67-0.08,0.92-0.3L-55.98,232.48z"/>
		<path id="path3296" class="st1" d="M-51.87,233.77c-0.4-0.2-0.73-0.51-0.95-0.9c-0.23-0.41-0.34-0.87-0.33-1.34v-2.42
			c-0.01-0.47,0.11-0.93,0.33-1.34c0.23-0.38,0.56-0.69,0.95-0.89c0.91-0.41,1.95-0.41,2.86,0c0.39,0.19,0.72,0.48,0.95,0.85
			c0.23,0.39,0.35,0.83,0.34,1.28c0,0.06-0.04,0.1-0.12,0.11l-1.23,0.07l0,0c-0.07,0-0.1-0.04-0.1-0.11
			c0.02-0.33-0.11-0.66-0.34-0.89c-0.24-0.23-0.56-0.35-0.9-0.33c-0.34-0.02-0.66,0.1-0.91,0.33c-0.23,0.24-0.36,0.56-0.34,0.89
			v2.53c-0.01,0.33,0.11,0.65,0.34,0.88c0.24,0.23,0.57,0.35,0.91,0.34c0.33,0.01,0.66-0.11,0.9-0.34c0.23-0.23,0.36-0.55,0.34-0.88
			c0-0.08,0.04-0.11,0.12-0.11l1.23,0.05c0.03,0,0.06,0.01,0.09,0.03c0.02,0.02,0.04,0.04,0.04,0.07c0.01,0.45-0.11,0.9-0.34,1.28
			c-0.23,0.37-0.56,0.67-0.95,0.86c-0.45,0.21-0.94,0.31-1.43,0.3C-50.92,234.11-51.42,234-51.87,233.77L-51.87,233.77z"/>
		<path id="path3298" class="st1" d="M-46.59,233.97c-0.03-0.02-0.04-0.06-0.04-0.09v-7.11c0-0.03,0.01-0.07,0.04-0.09
			c0.02-0.02,0.05-0.03,0.09-0.03h1.23c0.06-0.01,0.12,0.04,0.12,0.1c0,0.01,0,0.01,0,0.02v2.94c0,0.02,0,0.04,0.02,0.04
			c0.02,0,0.02,0,0.04,0l2.42-3.02c0.04-0.05,0.1-0.07,0.16-0.07h1.39c0.05,0,0.09,0,0.1,0.05c0.02,0.03,0.02,0.07,0,0.11
			l-2.34,2.99c-0.02,0.02-0.02,0.05,0,0.08l2.48,3.98c0,0.02,0,0.05,0,0.07c0,0.05-0.03,0.08-0.1,0.08h-1.38
			c-0.06,0.01-0.12-0.03-0.15-0.09l-1.87-3.03c-0.01-0.01-0.02-0.01-0.03,0c-0.01-0.01-0.03-0.01-0.04,0l-0.66,0.83
			c-0.01,0.02-0.02,0.04-0.02,0.06v2.09c0,0.03-0.01,0.07-0.03,0.09c-0.02,0.02-0.06,0.04-0.09,0.04h-1.23
			C-46.53,234.02-46.56,234-46.59,233.97L-46.59,233.97z"/>
		<path id="path3300" class="st1" d="M-38.57,233.91l-1.86-7.13v-0.04c0-0.07,0.04-0.1,0.12-0.1h1.3c0.06,0,0.12,0.04,0.13,0.1
			l1,4.29c0,0.03,0,0.04,0.03,0.04s0.02,0,0.03-0.04l0.95-4.27c0.01-0.07,0.07-0.12,0.14-0.11h1.27c0.07-0.01,0.13,0.04,0.15,0.1
			l1.05,4.29c0,0,0,0.03,0.03,0.03c0.03,0,0.02,0,0.03-0.03l0.95-4.27c0.01-0.07,0.07-0.12,0.14-0.11h1.24
			c0.1,0,0.14,0.04,0.12,0.13l-1.73,7.12c-0.02,0.07-0.08,0.11-0.14,0.1h-1.25c-0.07,0-0.12-0.04-0.14-0.1l-1.07-4.55
			c0-0.03-0.01-0.04-0.03-0.04c0,0-0.02,0-0.03,0.04l-1,4.54c-0.01,0.07-0.06,0.12-0.13,0.11c0,0,0,0,0,0h-1.17
			C-38.5,234.03-38.56,233.98-38.57,233.91L-38.57,233.91z"/>
		<path id="path3302" class="st1" d="M-25.83,227.89c-0.02,0.03-0.05,0.04-0.09,0.04h-3.45c-0.03,0-0.05,0.02-0.05,0.04
			c0,0,0,0.01,0,0.01v1.63c0,0.04,0,0.05,0.05,0.05h2.26c0.03,0,0.07,0.01,0.09,0.04c0.02,0.02,0.04,0.06,0.03,0.09v1.02
			c0,0.03-0.01,0.07-0.03,0.09c-0.02,0.02-0.06,0.04-0.09,0.04h-2.26c-0.04,0-0.05,0-0.05,0.05v1.7c0,0.04,0,0.05,0.05,0.05h3.45
			c0.03,0,0.06,0.01,0.09,0.04c0.03,0.02,0.04,0.06,0.04,0.09v1.02c0,0.03-0.01,0.07-0.04,0.09c-0.02,0.02-0.05,0.04-0.09,0.04
			h-4.85c-0.07,0-0.13-0.06-0.13-0.13v-7.11c0-0.03,0.01-0.07,0.04-0.09c0.02-0.02,0.06-0.04,0.09-0.03h4.85
			c0.03,0,0.06,0.01,0.09,0.03c0.03,0.02,0.04,0.06,0.04,0.09v1.02C-25.79,227.83-25.81,227.87-25.83,227.89L-25.83,227.89z"/>
		<path id="path3304" class="st1" d="M-24.73,233.97c-0.02-0.02-0.04-0.06-0.04-0.09v-7.11c0-0.03,0.01-0.07,0.04-0.09
			c0.02-0.02,0.05-0.03,0.09-0.03h1.23c0.06-0.01,0.12,0.04,0.12,0.1c0,0.01,0,0.01,0,0.02v5.9c0,0.03,0.02,0.05,0.04,0.05
			c0,0,0.01,0,0.01,0h3.44c0.07,0,0.13,0.06,0.13,0.13v1.02c0,0.03-0.01,0.07-0.04,0.09c-0.02,0.02-0.06,0.04-0.09,0.04h-4.84
			C-24.67,234.01-24.7,234-24.73,233.97L-24.73,233.97z"/>
		<path id="path3306" class="st1" d="M-18.7,233.97c-0.02-0.02-0.04-0.06-0.04-0.09v-7.11c0-0.03,0.01-0.07,0.04-0.09
			c0.02-0.02,0.06-0.04,0.09-0.03h1.23c0.03,0,0.07,0.01,0.09,0.03c0.02,0.02,0.04,0.06,0.04,0.09v5.9c0,0.04,0,0.05,0.05,0.05h3.43
			c0.03,0,0.07,0.01,0.09,0.04c0.02,0.02,0.04,0.06,0.04,0.09v1.02c0,0.07-0.06,0.13-0.13,0.13h-4.85
			C-18.65,234-18.68,233.99-18.7,233.97L-18.7,233.97z"/>
		<path id="path3308" class="st1" d="M-6.1,233.91l-0.31-1.03c0-0.03-0.03-0.04-0.05-0.04h-2.59c0,0-0.04,0-0.05,0.04l-0.31,1.03
			c-0.01,0.06-0.07,0.11-0.13,0.1h-1.34c-0.04,0-0.07-0.01-0.1-0.04c-0.02-0.03-0.02-0.08,0-0.11l2.26-7.09
			c0.01-0.06,0.07-0.11,0.13-0.1h1.65c0.07,0,0.12,0.04,0.14,0.1l2.27,7.1c0,0.02,0,0.04,0,0.05c0,0.06-0.04,0.1-0.11,0.1h-1.34
			C-6.04,234.02-6.1,233.97-6.1,233.91L-6.1,233.91z M-8.68,231.69h1.85c0.04,0,0.05,0,0.04-0.06l-0.95-3.12
			c0-0.03,0-0.04-0.03-0.04c-0.03,0,0,0-0.03,0.04l-0.92,3.12C-8.74,231.67-8.72,231.69-8.68,231.69L-8.68,231.69z"/>
		<path id="path3310" class="st1" d="M-2.48,233.78c-0.4-0.2-0.73-0.51-0.95-0.89c-0.23-0.4-0.35-0.85-0.34-1.32v-4.8
			c0-0.03,0.01-0.07,0.04-0.09c0.02-0.02,0.05-0.03,0.09-0.03h1.23c0.03,0,0.07,0.01,0.09,0.03c0.02,0.03,0.03,0.06,0.03,0.09v4.8
			c0,0.69,0.55,1.24,1.24,1.24c0.69,0,1.24-0.55,1.24-1.24c0,0,0,0,0,0v-4.8c0-0.03,0.01-0.07,0.04-0.09
			c0.02-0.02,0.05-0.03,0.09-0.03h1.23c0.06-0.01,0.12,0.04,0.12,0.1c0,0.01,0,0.01,0,0.02v4.77c0.01,0.46-0.11,0.92-0.34,1.32
			c-0.23,0.38-0.56,0.69-0.95,0.89c-0.91,0.43-1.96,0.43-2.86,0L-2.48,233.78z"/>
		<path id="path3312" class="st1" d="M8.02,226.69c0.02,0.03,0.03,0.06,0.03,0.09v1.03c0.01,0.06-0.04,0.12-0.1,0.12
			c-0.01,0-0.01,0-0.02,0H6.05c-0.03,0-0.05,0.02-0.05,0.04c0,0,0,0.01,0,0.01v5.89c0,0.07-0.06,0.13-0.13,0.13H4.64
			c-0.03,0-0.07-0.01-0.09-0.04c-0.02-0.02-0.04-0.06-0.03-0.09v-5.89c0-0.03-0.02-0.05-0.04-0.05c0,0-0.01,0-0.01,0H2.64
			c-0.03,0-0.07-0.01-0.09-0.03c-0.02-0.02-0.04-0.06-0.04-0.09v-1.04c0-0.03,0.01-0.07,0.04-0.09c0.02-0.02,0.06-0.04,0.09-0.03
			h5.29C7.97,226.65,8,226.67,8.02,226.69L8.02,226.69z"/>
		<path id="path3314" class="st1" d="M9.89,233.79c-0.4-0.22-0.73-0.55-0.95-0.95c-0.24-0.42-0.36-0.9-0.35-1.39v-2.24
			c-0.01-0.48,0.11-0.96,0.35-1.38c0.22-0.4,0.55-0.73,0.95-0.95c0.92-0.44,1.98-0.44,2.9,0c0.4,0.22,0.73,0.55,0.95,0.95
			c0.24,0.42,0.36,0.9,0.35,1.38v2.25c0.01,0.49-0.11,0.97-0.35,1.4c-0.22,0.4-0.55,0.73-0.95,0.95c-0.92,0.44-1.98,0.44-2.9,0
			V233.79z M12.27,232.48c0.24-0.26,0.37-0.6,0.36-0.95v-2.31c0.01-0.35-0.12-0.69-0.35-0.95c-0.25-0.26-0.6-0.39-0.95-0.37
			c-0.34-0.03-0.67,0.09-0.92,0.32c-0.23,0.26-0.36,0.6-0.35,0.95v2.31c-0.01,0.35,0.11,0.69,0.35,0.95
			c0.24,0.25,0.58,0.39,0.93,0.37c0.34,0.03,0.67-0.08,0.93-0.3L12.27,232.48z"/>
		<path id="path3316" class="st1" d="M20.11,226.66h1.23c0.03,0,0.06,0.01,0.09,0.03c0.02,0.02,0.04,0.06,0.04,0.09v7.1
			c0,0.03-0.01,0.07-0.04,0.09c-0.02,0.02-0.05,0.04-0.09,0.04h-1.23c-0.03,0-0.06-0.01-0.09-0.04c-0.03-0.02-0.04-0.06-0.04-0.09
			v-4.63c0-0.03,0-0.04-0.02-0.04c-0.02,0,0,0-0.04,0.03l-1.11,1.75c-0.03,0.05-0.09,0.08-0.15,0.08h-0.62
			c-0.06,0-0.11-0.03-0.14-0.08l-1.12-1.75c0,0-0.03-0.03-0.04,0c-0.01,0.03,0,0,0,0.05v4.62c0,0.03-0.01,0.07-0.03,0.09
			c-0.02,0.02-0.06,0.04-0.09,0.04h-1.23c-0.03,0-0.07-0.01-0.09-0.04c-0.02-0.02-0.04-0.06-0.03-0.09v-7.13
			c-0.01-0.06,0.04-0.12,0.1-0.12c0.01,0,0.01,0,0.02,0h1.22c0.06,0,0.12,0.03,0.15,0.08l1.57,2.45c0,0.04,0.04,0.04,0.06,0
			l1.58-2.45C20.01,226.69,20.06,226.66,20.11,226.66L20.11,226.66z"/>
		<path id="path3318" class="st1" d="M27.29,233.91l-0.31-1.03c0-0.03-0.03-0.04-0.05-0.04h-2.59c0,0-0.04,0-0.05,0.04l-0.31,1.03
			c-0.01,0.06-0.07,0.11-0.13,0.1h-1.34c-0.04,0-0.07-0.01-0.1-0.04c-0.02-0.03-0.02-0.08,0-0.11l2.26-7.09
			c0.01-0.06,0.07-0.11,0.13-0.1h1.65c0.06,0,0.12,0.04,0.13,0.1l2.27,7.1c0,0.02,0,0.04,0,0.05c0,0.06-0.04,0.1-0.11,0.1h-1.34
			C27.35,234.02,27.3,233.97,27.29,233.91L27.29,233.91z M24.72,231.69h1.85c0.04,0,0.05,0,0.04-0.06l-0.95-3.12
			c0-0.03,0-0.04-0.03-0.04c-0.03,0-0.02,0-0.03,0.04l-0.93,3.12C24.66,231.67,24.67,231.69,24.72,231.69L24.72,231.69z"/>
		<path id="path3320" class="st1" d="M34.06,226.69c0.03,0.02,0.04,0.06,0.04,0.09v1.03c0,0.03-0.01,0.07-0.04,0.09
			c-0.02,0.02-0.05,0.03-0.09,0.03h-1.88c-0.03,0-0.05,0.02-0.05,0.04c0,0,0,0.01,0,0.01v5.89c0,0.07-0.06,0.13-0.13,0.13h-1.23
			c-0.07,0-0.13-0.06-0.13-0.13v-5.89c0-0.03-0.02-0.05-0.04-0.05c0,0-0.01,0-0.01,0h-1.83c-0.03,0-0.06-0.01-0.09-0.03
			c-0.03-0.02-0.04-0.06-0.04-0.09v-1.04c0-0.03,0.01-0.07,0.04-0.09c0.02-0.02,0.05-0.03,0.09-0.03h5.3
			C34.01,226.65,34.04,226.67,34.06,226.69L34.06,226.69z"/>
		<path id="path3322" class="st1" d="M35.08,233.97c-0.02-0.02-0.04-0.06-0.04-0.09v-7.11c0-0.03,0.01-0.07,0.04-0.09
			c0.02-0.02,0.06-0.04,0.09-0.03h1.23c0.03,0,0.07,0.01,0.09,0.03c0.02,0.02,0.04,0.06,0.04,0.09v7.1c0,0.07-0.06,0.13-0.13,0.13
			h-1.23C35.14,234.01,35.1,234,35.08,233.97L35.08,233.97z"/>
		<path id="path3324" class="st1" d="M38.98,233.79c-0.4-0.22-0.73-0.55-0.95-0.95c-0.24-0.42-0.36-0.9-0.35-1.39v-2.24
			c-0.01-0.48,0.11-0.96,0.35-1.38c0.22-0.4,0.55-0.73,0.95-0.95c0.44-0.22,0.93-0.34,1.43-0.33c0.5-0.01,1,0.1,1.46,0.33
			c0.4,0.22,0.73,0.55,0.95,0.95c0.24,0.42,0.36,0.9,0.35,1.38v2.25c0.01,0.49-0.11,0.97-0.35,1.4c-0.22,0.4-0.55,0.73-0.95,0.95
			c-0.92,0.44-1.98,0.44-2.9,0L38.98,233.79z M41.36,232.48c0.24-0.26,0.37-0.6,0.36-0.95v-2.31c0.01-0.35-0.12-0.69-0.35-0.95
			c-0.52-0.5-1.34-0.5-1.87,0c-0.24,0.26-0.36,0.6-0.35,0.95v2.31c-0.01,0.35,0.11,0.7,0.35,0.95c0.24,0.25,0.58,0.39,0.93,0.37
			c0.34,0.02,0.68-0.11,0.93-0.35L41.36,232.48z"/>
		<path id="path3326" class="st1" d="M48.59,226.69c0.02-0.02,0.06-0.04,0.09-0.03h1.23c0.03,0,0.07,0.01,0.09,0.03
			c0.02,0.03,0.03,0.06,0.03,0.09v7.1c0,0.03-0.01,0.07-0.03,0.09c-0.02,0.02-0.06,0.04-0.09,0.04h-1.19
			c-0.06,0.01-0.12-0.03-0.14-0.09l-2.72-4.5c0,0-0.03-0.03-0.04-0.03c-0.01,0-0.02,0-0.02,0.05l0.02,4.43
			c0,0.07-0.06,0.13-0.13,0.13h-1.23c-0.07,0-0.13-0.06-0.13-0.13v-7.11c0-0.03,0.01-0.07,0.04-0.09c0.02-0.02,0.06-0.04,0.09-0.03
			h1.18c0.06-0.01,0.12,0.03,0.15,0.08l2.71,4.48c0,0,0.03,0.03,0.04,0.03c0.01-0.01,0,0,0-0.05v-4.41
			C48.54,226.74,48.56,226.71,48.59,226.69L48.59,226.69z"/>
	</g>
</g>
</svg>
