<?xml version="1.0" encoding="utf-8"?>
<!-- Generator: Adobe Illustrator 23.0.5, SVG Export Plug-In . SVG Version: 6.00 Build 0)  -->
<svg version="1.1" id="Capa_1" xmlns="http://www.w3.org/2000/svg" xmlns:xlink="http://www.w3.org/1999/xlink" x="0px" y="0px"
	 viewBox="0 0 800 600" enable-background="new 0 0 800 600" xml:space="preserve">
<text transform="matrix(1 0 0 1 219.907 527.8328)" fill="#1C519C" font-family="'ArialRoundedMTBold'" font-size="281.343px" letter-spacing="-21">BD</text>
<path fill="#E6421E" d="M491.02,207.082l57.832-9.892c1.702,39.252-52.912,128.381-141.988,128.381
	c-103.103,0-147.379-76.411-155.753-127.282l57.779,8.374c18.004,53.465,73.297,64.393,73.689,64.06
	c0.312-0.266-22.96-7.975-21.353-39.776c0.767-15.184,14.131-34.542,39.902-34.818c24.785-0.266,38.654,22.787,38.393,38.587
	c-0.135,8.174-2.797,14.872-3.767,16.924c-5.577,11.798-18.033,18.435-17.063,18.246
	C418.691,269.886,477.098,262.349,491.02,207.082z"/>
<path fill="#E6421E" d="M338.075,166.118c0,0-86.504,30.922-86.669,29.989c-5.181-29.361,4.867-67.828,11.776-83.058
	c18.41-40.586,49.439-60.16,55.738-64.217c7.272-4.683,38.725-24.04,81.148-24.179c0.002,0,0.023,0,0.026,0
	c43.449-0.134,75.581,19.825,81.645,23.708c11.545,7.394,39.723,32.344,55.738,64.374c8.229,16.459,14.863,46.422,11.776,83.215
	l-86.512-29.361l73.009-52.912l-87.297,19.94l32.658-83.686l-62.175,64.531l-18.527-87.611c0,0-16.849,87.57-17.428,87.768
	l-62.803-64.531l32.187,83.843l-87.611-20.254L338.075,166.118z"/>
</svg>
