<?xml version="1.0" encoding="utf-8"?>
<!-- Generator: Adobe Illustrator 23.0.5, SVG Export Plug-In . SVG Version: 6.00 Build 0)  -->
<svg version="1.1" id="Capa_1" xmlns="http://www.w3.org/2000/svg" xmlns:xlink="http://www.w3.org/1999/xlink" x="0px" y="0px"
	 viewBox="0 0 800 600" style="enable-background:new 0 0 800 600;" xml:space="preserve">
<style type="text/css">
	.st0{fill:#FECC00;}
	.st1{fill:#D50029;}
</style>
<polygon class="st0" points="802.53,206.4 802.53,382.96 2.53,382.96 2.53,206.4 802.53,206.4 "/>
<path class="st1" d="M256.74,280.17c-3.5,4.73-9.35,12.96-12.9,17.77c-1.81,2.44-5.07,6.88,5.75,6.88c11.45,0,56.97,0,56.97,0
	s9.18-12.49,16.88-22.94c10.47-14.21,0.91-43.78-36.53-43.78c-33.5,0-147.41,0-147.41,0l-25.56,34.73c0,0,132.5,0,139.3,0
	C260.27,272.84,260.17,275.51,256.74,280.17z M214.88,313.39c-10.82,0-7.56-4.45-5.75-6.89c3.56-4.81,9.5-12.95,13-17.68
	c3.44-4.66,3.53-7.34-3.51-7.34c-6.8,0-63.71,0-63.71,0l-51.33,69.76c0,0,91.68,0,125.18,0c41.35,0,64.36-28.12,71.46-37.85
	C300.23,313.39,226.33,313.39,214.88,313.39z M296.32,351.24h73.44l27.84-37.85l-73.43,0.01
	C324.15,313.39,296.32,351.24,296.32,351.24z M485.8,238.11l-28.17,38.26h-32.77l28.15-38.26h-73.41l-49.12,66.72H510.1l49.1-66.72
	H485.8z M402.53,351.24h73.41l27.85-37.85h-73.41C430.36,313.39,402.53,351.24,402.53,351.24z M-1.2,328.32v8.04h102.27l5.91-8.04
	H-1.2z M117.97,313.39H-1.2v8.03h113.25L117.97,313.39z M-1.2,351.24h91.32l5.88-7.99H-1.2V351.24z M691.03,336.36H798.8v-8.04
	H696.94L691.03,336.36z M680.08,351.24H798.8v-7.99H685.95L680.08,351.24z M707.92,313.39l-5.9,8.04h96.78v-8.04H707.92z
	 M611.76,304.83l49.11-66.72h-77.75c-0.03,0-49.15,66.72-49.15,66.72H611.76z M527.68,313.39c0,0-5.37,7.33-7.98,10.87
	c-9.22,12.45-1.07,26.98,29.02,26.98c34.76,0,117.9,0,117.9,0l27.85-37.85L527.68,313.39L527.68,313.39z"/>
</svg>
