<?xml version="1.0" encoding="utf-8"?>
<!-- Generator: Adobe Illustrator 23.0.5, SVG Export Plug-In . SVG Version: 6.00 Build 0)  -->
<svg version="1.1" id="Capa_1" xmlns="http://www.w3.org/2000/svg" xmlns:xlink="http://www.w3.org/1999/xlink" x="0px" y="0px"
	 viewBox="0 0 800 600" style="enable-background:new 0 0 800 600;" xml:space="preserve">
<style type="text/css">
	.st0{fill:#003478;}
	.st1{fill:#FFFFFF;}
</style>
<g id="layer1" transform="translate(-127.15947,-152.69208)">
	<path id="path737" class="st0" d="M535.16,296.95c-214.81,0-387,64.39-387,145.11c0,80.23,173.61,145.12,387,145.12
		c213.39,0,387-65.1,387-145.12S748.55,296.95,535.16,296.95"/>
	<path id="path741" class="st1" d="M687.59,472.8c0.1,0.66,0.98,1.3,1.82,1.6c0.31,0.1,0.46,0.31,0.14,1.02
		c-2.41,5.17-4.62,8.14-7.65,12.63c-2.78,4.15-5.91,7.38-9.7,10.49c-5.72,4.73-13.65,9.88-20.22,6.42c-2.91-1.51-4.18-5.59-4.12-8.9
		c0.14-9.29,4.27-18.82,11.9-28.19c9.3-11.45,19.58-17.39,26.33-14.14c6.98,3.33,4.75,11.41,1.63,17.76
		C687.49,471.98,687.49,472.39,687.59,472.8 M762.51,400.43c0.5-0.89-0.03-1.53-1.15-1.53c-5.83,0-13.48,0.01-19.56,0.01
		c-1.45,0-2.19,0.17-2.88,1.52c-2.24,4.3-29.57,45.26-34.66,53.21c-0.86,1.21-1.9,1.04-2.03-0.35c-0.52-4.72-4.6-10.16-11.02-12.75
		c-4.9-1.99-9.69-2.35-14.67-1.69c-8.99,1.21-17,5.95-24.04,11.3c-10.61,8.07-19.77,18.52-31.59,26.25
		c-6.45,4.21-15.29,7.87-21.2,2.4c-5.35-4.96-4.75-15.98,3.44-24.5c0.86-0.89,1.9-0.14,1.73,0.65c-0.77,3.85,0.17,7.69,3.1,10.37
		c3.57,3.2,8.68,3.56,13.06,1.43c5.16-2.56,8.2-7.5,9.08-13.1c1.37-8.7-5.33-16.37-13.7-16.98c-6.8-0.48-13.33,1.89-19.69,7.14
		c-3.19,2.64-5,4.6-7.76,8.52c-0.67,0.97-1.7,1.06-1.67-0.36c0.31-11.13-4.29-17.4-13.49-17.6c-7.15-0.17-14.78,3.71-20.73,8.45
		c-6.52,5.24-12.22,12.18-18.34,18.7c-0.76,0.8-1.42,0.76-1.64-0.79c-0.17-7.38-2.04-14.52-5.45-19.6
		c-1.21-1.77-3.75-2.64-5.89-1.45c-0.99,0.54-4.42,2.12-6.92,4.13c-1.24,1.02-1.72,2.5-1.17,4.39c3.3,11.02,2.57,23.55-1.9,34.14
		c-4.11,9.69-12.09,18.44-21.46,21.39c-6.18,1.96-12.6,1-16.58-4.48c-5.46-7.56-3.25-20.71,4.88-31.62
		c7.18-9.61,17.57-15.72,27.93-19.65c1.22-0.47,1.47-1.25,1.13-2.29c-0.56-1.7-1.46-4.02-1.82-5.08c-0.95-2.53-3.61-2.94-6.86-2.59
		c-7.53,0.88-14.32,3.45-21.03,7.05c-17.56,9.41-26.37,27.61-30.23,37.35c-1.86,4.68-3.45,7.6-5.5,10.19
		c-2.77,3.48-6.25,6.65-12.6,12.23c-0.57,0.51-1,1.58-0.52,2.57c0.65,1.34,3.95,6.01,4.89,6.43c1.04,0.51,2.24-0.21,2.72-0.55
		c4.45-3.01,9.77-7.79,12.37-11.03c0.91-1.11,1.85-0.64,2.34,1.04c2.43,8.67,8.79,15.75,17.59,18.71
		c16.11,5.43,32.81-2.43,45.42-16.12c8.01-8.7,10.91-14.29,13.98-18.1c5.21-6.45,15.47-20.88,27.7-30.14
		c4.49-3.42,9.79-6.02,12.46-4.29c2.14,1.39,2.83,4.61-0.6,10.87c-12.47,22.77-30.82,49.52-34.18,56.01
		c-0.62,1.13-0.07,2.01,1.1,2.01c6.53-0.03,12.99-0.02,18.92-0.02c0.99-0.03,1.43-0.5,1.92-1.19c9.57-14.98,18.58-29.24,28.23-43.98
		c0.54-0.87,1.04-0.21,1.06,0.17c0.21,3.42,1.04,8.1,3.07,11.17c3.65,5.68,8.82,8.12,14.55,8.16c4.56,0.07,6.87-0.64,11.79-2.48
		c4-1.48,7.22-3.43,9.68-5.2c1.44-1,1.69,0.68,1.66,0.93c-2.22,11.89,0.52,25.98,12.34,31.82c14.14,6.97,29.68-2.83,38.62-11.68
		c0.88-0.85,1.81-0.76,1.9,1.08c0.21,3.38,1.72,7.39,4.51,10.19c7.49,7.52,22.61,4.54,37.78-7.2c9.74-7.52,19.93-18.14,29.14-29.39
		c0.35-0.44,0.6-1.14-0.07-1.84c-1.4-1.47-3.43-3.15-4.82-4.44c-0.63-0.54-1.56-0.38-2.1,0.02c-9.44,8.98-17.93,19.21-30.21,27.68
		c-4.14,2.89-10.74,5.22-13.71,1.21c-1.16-1.56-1.02-3.71,0.1-6.54c3.58-8.93,60.26-95.22,63.2-100.31"/>
	<path id="path745" class="st1" d="M495.84,410.84c0.24,1.28,0.74,1.53,1.32,1.42c2.89-0.58,6.05-2.95,7.92-5.71
		c1.7-2.5,2.5-6.1,0.81-7.54c-1.51-1.3-3.97-0.93-5.79,0.68C496.48,402.9,495.37,407.45,495.84,410.84 M351.38,521.93
		c-21.13,0.14-39.75-12.91-41.89-35.52c-1.19-12.53,2.35-23.69,9.44-32.89c6.29-8.2,16.94-15.01,25.95-16.67
		c2.93-0.54,6.87-0.21,8.5,1.74c2.55,2.97,1.82,6.24-0.73,7.54c-6.87,3.51-15.15,9.52-19.24,17.72c-3.32,6.7-3.99,14.77,1.08,22.46
		c8.49,12.81,32.14,13.17,54.14-7.27c5.45-5,10.32-9.81,15.28-15.5c9.69-11.08,12.91-15.11,25.79-32.98
		c0.14-0.21,0.21-0.48,0.14-0.61c-0.1-0.24-0.28-0.28-0.66-0.31c-8.6,0.24-16.09,2.8-23.38,8.24c-2.1,1.53-5.12,1.32-6.44-0.7
		c-1.47-2.28-0.42-5.24,2-6.92c11.72-8.15,24.52-9.63,37.6-11.84c-0.01,0,0.91,0.03,1.65-0.95c5.37-6.89,9.42-13.1,15.14-20.07
		c5.76-7.07,13.21-13.56,18.9-18.43c7.94-6.83,13.03-9.13,18.21-11.94c1.36-0.71-0.17-1.56-0.59-1.56
		c-28.9-5.43-58.93-12.46-87.63-1.83c-19.88,7.42-28.59,23.18-24.4,33.71c2.98,7.47,12.81,8.69,22,4.18
		c7.64-3.74,14.71-9.78,19.72-17.54c2.8-4.31,8.71-1.2,5.52,6.29c-8.4,19.74-24.44,35.4-43.98,36.06
		c-16.63,0.54-27.36-11.7-27.33-26.79c0.07-29.77,33.21-49.39,68.05-52.32c41.95-3.47,81.68,7.71,123.33,12.76
		c31.91,3.86,62.51,3.95,94.58-3.42c3.79-0.82,6.45,1.6,6.21,5.43c-0.31,5.54-4.6,10.87-15.17,16.63
		c-12.02,6.59-24.58,8.59-37.71,8.7c-31.74,0.28-61.31-12.11-91.91-18.76c0.03,1.34,0.39,2.94-0.73,3.78
		c-16.95,12.5-32.27,25.2-42.53,43.03c-0.35,0.41-0.17,0.8,0.44,0.76c8.91-0.47,16.92-0.7,25.24-1.37c1.45-0.14,1.51-0.48,1.38-1.54
		c-0.74-6.15,1.06-13.15,6.47-17.98c5.53-4.96,12.46-5.53,17.05-1.95c5.22,4.07,4.76,11.39,1.9,16.87
		c-2.91,5.57-7.71,8.55-12.32,9.99c0,0-0.97,0.21-0.82,1.09c0.17,1.41,6.46,4.89,7,5.81c0.52,0.88,0.24,2.25-0.7,3.3
		c-0.66,0.76-1.71,1.47-3.04,1.45c-1.08-0.02-1.73-0.39-3.11-1.14c-2.82-1.53-6.34-4.04-8.69-7c-0.8-1-1.21-1.02-3.21-0.91
		c-9,0.52-23.03,1.88-32.54,3.06c-2.31,0.28-2.64,0.72-3.12,1.52c-15.16,25-31.35,51.96-49.12,70
		C384.06,516.7,368.21,521.79,351.38,521.93"/>
	<path id="path749" class="st1" d="M535.15,320.67c-197.62,0-357.8,54.61-357.8,121.43c0,66.83,160.18,121.44,357.8,121.44
		c197.61,0,357.79-54.61,357.79-121.44C892.93,375.28,732.76,320.67,535.15,320.67 M535.15,574.55
		c-204.81,0-370.84-59.3-370.84-132.44c0-73.16,166.03-132.44,370.84-132.44c204.79,0,370.81,59.29,370.81,132.44
		C905.96,515.25,739.94,574.55,535.15,574.55"/>
</g>
</svg>
