<?xml version="1.0" encoding="utf-8"?>
<!-- Generator: Adobe Illustrator 23.0.5, SVG Export Plug-In . SVG Version: 6.00 Build 0)  -->
<svg version="1.1" id="Capa_1" xmlns="http://www.w3.org/2000/svg" xmlns:xlink="http://www.w3.org/1999/xlink" x="0px" y="0px"
	 viewBox="0 0 80 50" style="enable-background:new 0 0 80 50;" xml:space="preserve">
<style type="text/css">
	.st0{fill:none;}
	.st1{fill:#FFFFFF;}
	.st2{font-family:'CenturyGothic';}
	.st3{font-size:28px;}
</style>
<rect x="4.76" y="10" class="st0" width="42.24" height="31"/>
<text transform="matrix(1 0 0 1 4.7563 30.6074)" class="st1 st2 st3">ter</text>
<text transform="matrix(1 0 0 1 41.7041 35.7188)" class="st1 st2 st3">ett</text>
<path class="st1" d="M2.03,10h44.28c0.76,0,1.24,0.82,0.88,1.48L32.82,37.52C32.45,38.18,32.93,39,33.69,39H78c0.55,0,1-0.45,1-1
	l0,0c0-0.55-0.45-1-1-1H37.69c-0.76,0-1.24-0.82-0.88-1.48L51.19,9.47c0.37-0.66-0.11-1.48-0.87-1.48L2.05,7.53
	c-0.55-0.01-1,0.43-1.01,0.97L1.03,8.97C1.01,9.54,1.46,10,2.03,10z"/>
</svg>
