<?xml version="1.0" encoding="utf-8"?>
<!-- Generator: Adobe Illustrator 23.0.5, SVG Export Plug-In . SVG Version: 6.00 Build 0)  -->
<svg version="1.1" id="Capa_1" xmlns="http://www.w3.org/2000/svg" xmlns:xlink="http://www.w3.org/1999/xlink" x="0px" y="0px"
	 viewBox="0 0 250 100" style="enable-background:new 0 0 250 100;" xml:space="preserve">
<style type="text/css">
	.st0{fill-rule:evenodd;clip-rule:evenodd;fill:#FFFFFF;}
	.st1{fill-rule:evenodd;clip-rule:evenodd;fill:#4B84C4;}
	.st2{fill-rule:evenodd;clip-rule:evenodd;}
</style>
<g>
	<path class="st0" d="M204.72,12.94c-13.85-2.57-27.74-5.42-41.67-7.9c-2.97,4.2-6.87,7.86-10.9,10.21c-8.32,4.87-17,5.06-26.2,3.43
		c-9.15-1.62-18.41-2.62-27.48-4.69c-4.72-1.08-9.23-2.5-13.57-4.26C56.96,13.77,28.07,17.12,0,13.72v88.57
		c14.84-2.78,29.18-4.2,44.28-3.81c8.45,0.22,16.9,0.42,25.35,0.54c3.98-1.66,8.01-3.23,12.09-4.69
		c24.45-8.71,50.21-14.1,76.08-16.18c16.56-1.33,33.06,0.59,49.35,3.59c0.6-0.02,1.19-0.03,1.77-0.03
		c13.76-0.13,27.73,2.26,41.08,5.77V14.62c-4.07,0.92-8.2,1.44-11.98,1.68C226.86,17.03,215.64,14.97,204.72,12.94z"/>
	<path class="st1" d="M38.76,32.37c0.15-2.88,2.65-5.38,5.23-6.06c6.36-1.82,9.84-1.51,21.28-1.59
		c-6.89,6.13-12.34,15.83-11.13,25.29c-2.5-2.04-4.16-4.92-6.29-7.19c0.83-1.59,1.59-3.1,2.05-4.85c0.76-2.88,2.88-3.56,5.45-3.48
		c0.23,0-0.15-2.2-0.83-2.35c-1.97-0.53-3.64,0.08-5.91-0.83c-0.68-0.23-1.51,0.15-2.12,0.46c-1.89,0.91-3.03,2.95-5.15,3.64
		L38.76,32.37L38.76,32.37z M3.77,30.48c3.94-2.65,7.72-4.47,12.34-5.38c5.83-1.06,12.19-1.13,16.51,3.1
		c8.25,7.95,14.92,16.28,22.19,25.29c0.23,0.38,0.23,1.37,0,1.51c-5.15,2.95-10.22,5.3-15.68,7.35c-0.91,0.3-1.97-0.08-2.57-0.53
		c-8.25-7.5-13.86-16.51-21.81-24.31C11.72,34.57,8.09,32.37,4,31.16C3.62,31.01,3.62,30.63,3.77,30.48z"/>
	<path class="st1" d="M32.55,67.05c-5.91,4.24-10.98,9.47-14.77,15.75c-1.44-6.13-1.51-12.65,0.61-18.55
		c2.05-5.83,2.5-11.43,2.73-17.49c3.79,4.39,8.03,9.16,11.59,13.48L32.55,67.05L32.55,67.05z"/>
	<path class="st2" d="M84.8,44.11h-3.79c-2.88-3.41-6.66-7.95-8.48-11.06h-0.08v11.06h-4.47V25.18h4.09
		c2.73,3.41,6.82,8.33,8.18,10.83h0.08V25.18h4.47L84.8,44.11L84.8,44.11L84.8,44.11z M98.05,25.18l7.19,18.93h-6.06l-1.51-4.47
		h-5.83l-1.82,4.47h-4.47l7.72-18.93H98.05z M96.76,36.61c-0.61-2.27-1.14-4.09-1.82-6.74h-0.08c-0.76,2.65-1.36,4.47-2.12,6.74
		H96.76z M107.06,44.11V28.74h-5.53v-3.56h16.66v3.56h-5.45v15.37L107.06,44.11L107.06,44.11z M120.01,25.18h5.68v18.93h-5.68V25.18
		z M127.13,34.42c0-5.3,3.94-9.54,9.39-9.54c5.45,0,9.39,4.24,9.39,9.54c0,5.68-3.56,10-9.39,10
		C130.69,44.41,127.13,40.1,127.13,34.42z M139.93,34.42c0-3.33-0.98-5.6-3.41-5.6c-2.42,0-3.48,2.27-3.48,5.6
		c0,3.56,0.91,6.06,3.48,6.06C139.02,40.48,139.93,37.98,139.93,34.42z M164.16,44.11h-3.86c-2.8-3.41-6.67-7.95-8.48-11.06h-0.08
		v11.06h-4.47V25.18h4.16c2.73,3.41,6.82,8.33,8.18,10.83V25.18h4.54V44.11z M177.03,25.18l7.19,18.93h-6.06l-1.44-4.47h-5.91
		l-1.82,4.47h-4.39l7.65-18.93H177.03L177.03,25.18z M175.82,36.61c-0.68-2.23-1.31-4.48-1.89-6.74c-0.76,2.65-1.36,4.47-2.12,6.74
		H175.82z M185.52,25.18h5.76v15.37h6.89v3.56h-12.65V25.18z M59.43,49.94h5.75v18.93h-5.75V49.94z M84.42,68.87h-3.79
		c-2.88-3.41-6.66-7.95-8.48-11.06h-0.08v11.06h-4.47V49.94h4.09c2.73,3.41,6.82,8.33,8.18,10.9h0.08v-10.9h4.47V68.87z
		 M96.46,53.88c-0.76-0.46-1.74-0.68-2.8-0.68c-1.06,0-1.67,0.53-1.67,1.13c0,1.06,1.59,1.97,3.41,3.64
		c2.42,2.27,3.03,3.71,3.03,5.68c0,1.67-1.36,5.6-7.04,5.6c-2.2,0-4.39-0.53-5.91-1.74l1.74-3.18c0.76,0.68,1.89,1.36,3.18,1.36
		c1.14,0,2.42-0.61,2.42-1.97c0-1.51-1.89-2.65-3.33-3.94c-1.97-1.74-3.18-2.73-3.18-5.07c0-3.03,3.1-5.08,6.66-5.08
		c2.42,0,4.32,0.91,4.92,1.29L96.46,53.88L96.46,53.88z M104.11,68.87V53.5h-5.53v-3.56h16.66v3.56h-5.45v15.37H104.11z
		 M117.06,49.94h8.48c4.39,0,6.82,1.97,6.82,5.07c0,2.88-1.44,4.62-3.18,5.45l4.17,8.1l-6.06,0.68l-3.03-7.5h-1.44v7.12h-5.76
		L117.06,49.94L117.06,49.94L117.06,49.94z M122.81,58.2h1.59c1.51,0,2.27-1.36,2.27-2.35c0-1.89-1.14-2.35-2.42-2.35h-1.44
		L122.81,58.2L122.81,58.2z M139.78,49.94v9.92c0,3.41,0.53,5.38,2.95,5.38c1.89,0,2.95-1.89,2.95-5.45v-9.85h4.92v11.43
		c0,5.68-3.86,7.88-8.18,7.88c-4.85,0-8.33-2.04-8.33-7.72V49.94L139.78,49.94L139.78,49.94L139.78,49.94z M176.05,68.87h-5.68
		V55.62h-0.08c-1.44,5-2.95,9.16-4.47,13.25h-3.56c-1.59-4.09-3.1-8.26-4.62-13.25v13.25h-4.54V49.94h7.72
		c1.29,3.63,2.65,7.27,3.86,11.66h0.08c1.21-4.39,2.5-8.03,3.71-11.66h7.57V68.87z M189.98,53.5h-5.75v3.71h5.61v3.56h-5.61v4.62
		h6.89v3.48h-12.65V49.94h11.51V53.5z M208.99,68.87h-3.79c-2.8-3.41-6.66-7.95-8.48-11.06h-0.08v11.06h-4.47V49.94h4.17
		c2.73,3.41,6.81,8.33,8.1,10.9h0.08v-10.9h4.47V68.87z M215.5,68.87V53.5h-5.45v-3.56h16.58v3.56h-5.45v15.37H215.5z M237.84,53.88
		c-0.76-0.46-1.74-0.68-2.8-0.68c-1.13,0-1.66,0.53-1.66,1.13c0,1.06,1.59,1.97,3.41,3.64c2.42,2.27,3.03,3.71,3.03,5.68
		c0,1.67-1.36,5.6-7.04,5.6c-2.2,0-4.39-0.53-5.91-1.74l1.67-3.18c0.83,0.68,1.89,1.36,3.26,1.36c1.13,0,2.42-0.61,2.42-1.97
		c0-1.51-1.89-2.65-3.33-3.94c-1.97-1.74-3.18-2.73-3.18-5.07c0-3.03,3.1-5.08,6.67-5.08c2.42,0,4.24,0.91,4.92,1.29L237.84,53.88
		L237.84,53.88z M240.87,53.2v-2.65h-1.06v-0.3h2.57v0.3h-0.98v2.65H240.87z M246.32,53.2h-0.46V51h-0.08l-1.13,2.2h-0.3l-1.06-2.2
		h-0.08v2.2h-0.38v-2.95h0.61l1.13,2.2l1.21-2.2h0.53V53.2z"/>
</g>
</svg>
