<?xml version="1.0" encoding="utf-8"?>
<!-- Generator: Adobe Illustrator 23.0.5, SVG Export Plug-In . SVG Version: 6.00 Build 0)  -->
<svg version="1.1" id="Capa_1" xmlns="http://www.w3.org/2000/svg" xmlns:xlink="http://www.w3.org/1999/xlink" x="0px" y="0px"
	 viewBox="0 0 250 100" style="enable-background:new 0 0 250 100;" xml:space="preserve">
<style type="text/css">
	.st0{fill:#77B900;}
</style>
<path id="path17" d="M249.17,69.73c0,1.65-1.21,2.76-2.65,2.76v-0.01c-1.48,0.01-2.67-1.1-2.67-2.75c0-1.65,1.19-2.76,2.67-2.76
	C247.96,66.98,249.17,68.08,249.17,69.73z M250.24,69.73c0-2.27-1.76-3.58-3.72-3.58c-1.98,0-3.74,1.32-3.74,3.58
	c0,2.26,1.76,3.59,3.74,3.59C248.48,73.32,250.24,72,250.24,69.73 M245.9,70.04h0.4l0.92,1.62h1.01l-1.02-1.69
	c0.53-0.04,0.96-0.29,0.96-1c0-0.88-0.61-1.17-1.64-1.17h-1.49v3.86h0.86L245.9,70.04 M245.9,69.38v-0.93h0.6
	c0.32,0,0.77,0.03,0.77,0.42c0,0.43-0.23,0.51-0.61,0.51H245.9"/>
<path id="path19" d="M225.18,49.99l4.64,12.7h-9.43L225.18,49.99z M220.21,45.05l-10.69,27.1h7.55l1.69-4.79h12.66l1.6,4.79h8.2
	l-10.77-27.1L220.21,45.05z M198.73,72.16h7.66V45.04l-7.66,0L198.73,72.16z M145.54,45.04l-6.39,21.49l-6.12-21.49l-8.27,0
	l8.75,27.12h11.04l8.82-27.12H145.54z M176.51,50.94h3.29c4.78,0,7.87,2.14,7.87,7.71c0,5.57-3.09,7.71-7.87,7.71h-3.29V50.94z
	 M168.92,45.04v27.12h12.42c6.62,0,8.78-1.1,11.12-3.57c1.65-1.73,2.72-5.54,2.72-9.69c0-3.81-0.9-7.21-2.48-9.33
	c-2.84-3.79-6.93-4.53-13.03-4.53L168.92,45.04L168.92,45.04z M96.34,45v27.15h7.73V51.54l5.99,0c1.98,0,3.4,0.49,4.35,1.51
	c1.21,1.29,1.71,3.37,1.71,7.18v11.92h7.49v-15c0-10.71-6.83-12.15-13.5-12.15H96.34z M156.59,45.04l0,27.12h7.66V45.04H156.59z"/>
<path id="path21" class="st0" d="M10.39,45.74c0,0,8.49-12.52,25.44-13.82v-4.54C17.05,28.89,0.8,44.79,0.8,44.79
	S10,71.4,35.82,73.84v-4.83C16.87,66.63,10.39,45.74,10.39,45.74z M35.82,59.41v4.42c-14.32-2.55-18.3-17.44-18.3-17.44
	s6.88-7.62,18.3-8.85v4.85c-0.01,0-0.01,0-0.02,0c-5.99-0.72-10.68,4.88-10.68,4.88S27.75,56.69,35.82,59.41 M35.82,19v8.38
	c0.55-0.04,1.1-0.08,1.66-0.1c21.34-0.72,35.25,17.5,35.25,17.5S56.75,64.21,40.12,64.21c-1.52,0-2.95-0.14-4.29-0.38v5.18
	c1.15,0.15,2.34,0.23,3.58,0.23c15.48,0,26.68-7.91,37.52-17.27c1.8,1.44,9.16,4.94,10.67,6.48c-10.31,8.63-34.33,15.59-47.96,15.59
	c-1.31,0-2.57-0.08-3.81-0.2v7.28h58.85V19H35.82z M35.82,37.54v-5.61c0.55-0.04,1.09-0.07,1.66-0.09
	c15.35-0.48,25.41,13.19,25.41,13.19s-10.87,15.1-22.53,15.1c-1.68,0-3.18-0.27-4.54-0.72V42.39c5.97,0.72,7.18,3.36,10.77,9.35
	L54.58,45c0,0-5.83-7.65-15.66-7.65C37.85,37.35,36.83,37.43,35.82,37.54"/>
</svg>
