<?xml version="1.0" encoding="utf-8"?>
<!-- Generator: Adobe Illustrator 23.0.5, SVG Export Plug-In . SVG Version: 6.00 Build 0)  -->
<svg version="1.1" id="Capa_1" xmlns="http://www.w3.org/2000/svg" xmlns:xlink="http://www.w3.org/1999/xlink" x="0px" y="0px"
	 viewBox="0 0 250 100" style="enable-background:new 0 0 250 100;" xml:space="preserve">
<style type="text/css">
	.st0{fill:#231F20;}
	.st1{fill:none;stroke:#231F20;stroke-width:0.306;stroke-miterlimit:3.864;}
</style>
<g id="layer1" transform="translate(-2886.3153,1478.3352)">
	<g id="g13813" transform="translate(17.716541,17.735121)">
		<path id="path8" class="st0" d="M3036.82-1445.8v-29.24h8.59l12.59,13.12v-13.12h10.07v29.24H3060l-13.09-13.09v13.09H3036.82"/>
		<path id="path10" class="st0" d="M2961.73-1445.8v-29.24h10.07v10.1h9.08v-10.1h10.1v29.24h-10.1v-11.06h-9.08v11.06H2961.73"/>
		<path id="path12" class="st0" d="M3083.29-1475.07h10.58l6.04,7.56l6.07-7.56h10.58l-11.09,14.11l12.62,15.13h-12.11l-6.07-8.04
			l-6.04,8.04h-12.11l12.59-15.13L3083.29-1475.07"/>
		<path id="path14" class="st0" d="M2956.32-1440.93c-2.42-1.49-5.77-1.82-8.83-1.82c-8.61,0-15.62,6.28-15.62,14.62
			c0,8.31,7.01,14.62,15.62,14.62c3.24,0,6.12-0.42,8.68-2.03v-8.04c-1.28,2.39-3.7,3.02-6.55,3.02c-4.16,0-7.55-3.41-7.55-7.56
			s3.38-7.59,7.55-7.59c2.7,0,5.2,0.87,6.55,3.02v-8.04L2956.32-1440.93"/>
		<path id="path16" class="st0" d="M2989.49-1413.52v-29.24h8.58l12.6,13.12v-13.12h10.07v29.24h-8.08l-13.1-13.09v13.09H2989.49"/>
		<path id="path18" class="st0" d="M3030.27-1413.52v-21.67h-7.58v-7.56h25.23v7.56h-7.59v21.67H3030.27"/>
		<path id="path20" class="st0" d="M3089.78-1435.19c-0.15,0-0.3,0-0.39,0c-3.71,0.42-6.31,3.68-6.31,7.53
			c0,4.19,3.38,7.09,7.56,7.09c2.84,0,5.26-0.63,6.55-3.02v8.04c-2.57,1.61-5.47,2.03-8.7,2.03c-8.61,0-15.6-5.8-15.6-14.14
			c0-8.31,7-15.1,15.6-15.1c0.12,0,0.18,0,0.3,0h29.39v7.56h-7.59v21.67h-10.04v-21.67H3089.78"/>
		<path id="path22" class="st1" d="M2942.23-1428.26L2942.23-1428.26z"/>
		<path id="path24" class="st0" d="M3070.67-1445.8h10.1v-29.24h-10.1V-1445.8z"/>
		<path id="path26" class="st0" d="M2899.17-1463.26l2.85,0.03v3.35c0,1.14,0.6,2.27,1.49,2.84c3.2,1.41,5.41,4.57,5.41,8.31
			c0,3.5-2.06,6.58-5.02,8.07c-0.89,0.57-1.89,1.94-1.89,3.05v5.86v-0.03c0,1.76,1.42,3.23,3.2,3.23c11.1,0,20.18-9.09,20.18-20.18
			c0-11.15-9.08-20.24-20.18-20.24c-1.78,0-3.2,2-3.2,3.74v2.69l-4.24-0.15v-3.02c0-1.79-1.46-3.2-3.2-3.2h-11.25l-0.5-6.13h42.56
			c2.21,0,4.06,1.85,4.06,4.04v52.97c0,2.21-1.92,4.27-4.13,4.27h-52.46c-2.21,0-3.95-1.85-3.95-4.07V-1471
			c0-2.18,1.81-4.04,4.02-4.04h10.11l0.6,6.13h-4.98c-1.78,0-3.2,1.41-3.2,3.2v42.48c0,1.73,1.42,3.17,3.2,3.17h15.94
			c1.74,0,3.17-0.9,3.17-2.66v-14.89c0-1.11-0.5-2.12-1.42-2.66c-3.38-1.32-5.48-4.63-5.48-8.46c0-3.41,1.81-6.34,4.59-7.89
			c0.89-0.57,2.31-2.12,2.31-3.26v-3.2h2.6l-0.46,9.57c-2.6,0-4.77,2.12-4.77,4.78c0,2.57,2.14,4.72,4.74,4.72
			c2.63,0,4.77-2.15,4.77-4.72c0-2.66-2.1-4.78-4.74-4.78L2899.17-1463.26"/>
		<path id="path28" class="st0" d="M2933.48-1465.86v20.06h11.1v-9.06h5.55c5.55,0,10.07-4.51,10.07-10.07s-4.52-10.07-10.07-10.07
			l-16.65-0.03v9.98l11.1,0.09v-3.5h2.56c1.92,0,3.52,1.61,3.52,3.53c0,1.91-1.6,3.53-3.52,3.53h-2.56v-4.01L2933.48-1465.86"/>
		<path id="path30" class="st0" d="M3007.75-1475.01c-8.19,0.42-15.09,6.43-15.09,14.47c0,8.34,6.87,14.74,15.48,14.74
			c0.28,0,26.73,0,26.73,0v-7.03h-12.1v-4.04h11.6v-7.08h-11.6v-4.01h12.1v-7.08h-27.19l0.43,7.5c3.49-0.06,5.69,3.17,5.69,7.06
			c0,3.86-2.03,7-5.62,7.03c-3.06,0-5.59-3.17-5.59-7.03c0-3.89,2.53-7.08,5.59-7.08L3007.75-1475.01"/>
		<path id="path32" class="st0" d="M2972.27-1435.16c3.06,0,5.66,3.17,5.66,7.06c0,3.89-2.56,7.06-5.62,7.06
			c-3.06,0-5.59-3.17-5.59-7.06c0-3.89,2.53-7.09,5.59-7.09l0.21-7.62c-8.61,0-15.73,6.34-15.73,14.68
			c0,8.31,7.01,14.62,15.62,14.62c8.61,0,15.66-6.31,15.66-14.62c0-8.34-7.01-14.62-15.62-14.62L2972.27-1435.16"/>
		<path id="path34" class="st0" d="M3059.49-1424.61h-2.96l2.54-7.06l2.51,7.06h-2.57l-0.09,6.58h4.69l1.49,4.51h11.09l-11.54-29.24
			h-11.15h0.06l-11.66,29.24h11.09l1.52-4.51h4.84L3059.49-1424.61"/>
	</g>
</g>
</svg>
