<?xml version="1.0" encoding="utf-8"?>
<!-- Generator: Adobe Illustrator 23.0.5, SVG Export Plug-In . SVG Version: 6.00 Build 0)  -->
<svg version="1.1" id="Capa_1" xmlns="http://www.w3.org/2000/svg" xmlns:xlink="http://www.w3.org/1999/xlink" x="0px" y="0px"
	 viewBox="0 0 250 100" style="enable-background:new 0 0 250 100;" xml:space="preserve">
<style type="text/css">
	.st0{fill:#009E4D;}
	.st1{clip-path:url(#SVGID_2_);}
	.st2{clip-path:url(#SVGID_4_);}
</style>
<g id="g11" transform="matrix(1.25,0,0,-1.25,-511.80125,157.815)">
	<g id="g2510" transform="translate(1.4705494,-0.9803663)">
		<path id="path53" class="st0" d="M430.72,107.25c-4.57,2.03-7.3,2.82-10.01,2.82c-2.84,0-4.66-1.02-4.66-2.59
			c0-4.75,16.1-3.41,16.1-14.39c0-6.05-5.08-9.57-12.13-9.57c-5.53,0-8.26,1.43-11.4,3.05v6.79c4.53-3,7.3-4.06,10.79-4.06
			c3.03,0,4.66,1.06,4.66,2.91c0,5.17-16.1,3.27-16.1,14.58c0,5.45,4.71,9.06,12.04,9.06c3.54,0,6.73-0.74,10.7-2.45V107.25"/>
		<path id="path55" class="st0" d="M453.26,84.96c-2.68-0.97-4.95-1.44-7.22-1.44c-7.5,0-12.35,4.37-12.35,11.01
			c0,6.52,5.04,11.13,12.07,11.13c2.17,0,4.95-0.56,7.17-1.38v-4.99c-1.76,0.93-3.79,1.45-5.46,1.45c-4.02,0-6.61-2.42-6.61-6.15
			c0-3.78,2.55-6.28,6.38-6.28c1.62,0,3.06,0.37,6.02,1.48V84.96"/>
		<path id="path57" class="st0" d="M511.72,96.98c0.27,2.96,2,4.68,4.63,4.68c2.59,0,4.35-1.76,4.63-4.68H511.72z M515.89,105.66
			c-6.58,0-11.26-4.65-11.26-11.19c0-6.59,4.87-10.95,12.38-10.95c1.66,0,5.68,0,9.52,2.83v4.17c-3.14-2.24-5.21-3.01-7.89-3.01
			c-4.23,0-6.81,2.19-7.05,5.92h15.32C527.21,101.24,522.1,105.66,515.89,105.66"/>
		<path id="path59" class="st0" d="M529.49,83.91h6.7v21.35h-6.7V83.91z"/>
		<path id="path61" class="st0" d="M554.83,89.75c-1.4-1.26-2.55-1.76-3.99-1.76c-3.15,0-5.15,2.6-5.15,6.49
			c0,4.26,2,6.72,5.37,6.72c1.21,0,2.79-0.56,3.76-1.25V89.75z M554.83,115.45v-11.12c-1.81,0.88-3.61,1.34-5.56,1.34
			c-6.11,0-10.34-4.52-10.34-11.05c0-6.39,4.23-11.1,9.96-11.1c2.27,0,4.03,0.6,5.94,2.12v-1.72h6.7v31.53H554.83"/>
		<path id="path63" class="st0" d="M571.44,96.98c0.28,2.96,1.99,4.68,4.62,4.68c2.6,0,4.37-1.76,4.65-4.68H571.44z M575.6,105.66
			c-6.58,0-11.25-4.65-11.25-11.19c0-6.59,4.87-10.95,12.37-10.95c1.66,0,5.69,0,9.53,2.83v4.17c-3.14-2.24-5.22-3.01-7.91-3.01
			c-4.21,0-6.8,2.19-7.04,5.92h15.31C586.93,101.24,581.81,105.66,575.6,105.66"/>
		<g id="g65">
			<g>
				<defs>
					<polyline id="SVGID_1_" points="407.97,115.85 407.97,56.81 607.97,56.81 607.97,115.85 					"/>
				</defs>
				<clipPath id="SVGID_2_">
					<use xlink:href="#SVGID_1_"  style="overflow:visible;"/>
				</clipPath>
				<g id="g67" class="st1">
					<path id="path73" class="st0" d="M596.64,99.15h0.1c1.99,4.44,4.21,6.53,6.8,6.53c1.34,0,2.49-0.51,4.44-1.95l-1.84-5.92
						c-1.76,1.11-2.91,1.57-3.98,1.57c-2.46,0-4.03-2.32-5.51-6.23v-9.21h-6.71v21.35h6.71V99.15"/>
					<path id="path75" class="st0" d="M536.5,114.25c0.63-1.66-0.5-3.97-2.52-5.16c-2.03-1.19-4.17-0.81-4.79,0.85
						c-0.64,1.66,0.49,3.98,2.51,5.16C533.72,116.29,535.86,115.91,536.5,114.25"/>
				</g>
			</g>
		</g>
		<path id="path77" class="st0" d="M477.39,97.5c0,5.79-3.93,8.16-7.81,8.16c-2.64,0-4.81-1.11-6.75-3.57h-0.09v13.36h-6.71V83.97
			h6.71V97.5c1.57,2.27,2.91,3.24,4.48,3.24c2.09,0,3.47-1.48,3.47-4.67v-7.5c2.25,1.16,4.53,1.86,6.7,2.13V97.5"/>
		<path id="path79" class="st0" d="M494.2,105.67c-2.73,0-4.82-1.01-6.95-3.46v3.06h-6.7V90.75c2.32-0.23,5.28-1.3,6.7-3.06v9.97
			c1.76,2.64,3.01,3.53,4.68,3.53c1.9,0,3.34-1.25,3.34-4.26V83.97h6.7v13.52C501.98,103.77,497.54,105.67,494.2,105.67"/>
		<path id="path81" class="st0" d="M505.68,77.84h-7.79V72.3h7.51v-2.37h-7.51v-5.71h8.02v-2.37h-10.63v18.36h10.4V77.84"/>
		<path id="path83" class="st0" d="M512.04,61.83h2.39v18.38h-2.39V61.83z"/>
		<path id="path85" class="st0" d="M526.24,72.13c1.69,0,2.74-1.17,2.82-3h-6.08C523.31,71.04,524.41,72.13,526.24,72.13z
			 M522.94,67.54h8.5c0,4.48-2.05,6.64-5.25,6.64c-3.33,0-5.64-2.46-5.64-6.13c0-3.35,2.09-6.45,5.84-6.45
			c2.05,0,3.37,0.45,4.84,1.43v2.32c-1.42-0.93-2.79-1.46-4.23-1.46C524.68,63.9,523.31,65.14,522.94,67.54"/>
		<path id="path87" class="st0" d="M547.02,70.77c-1.37,0.94-2.29,1.22-3.33,1.22c-2.18,0-3.7-1.68-3.7-4.13
			c0-2.5,1.61-4.01,4.1-4.01c1.02,0,2,0.27,3.2,0.8V62.3c-0.8-0.38-2.34-0.69-3.6-0.69c-3.61,0-6.12,2.48-6.12,6.04
			c0,4.01,2.29,6.54,5.96,6.54c1.4,0,2.34-0.33,3.5-0.83V70.77"/>
		<path id="path89" class="st0" d="M557.89,73.95h3.83V71.8h-3.83v-6.21c0-1.42,1.03-1.83,1.73-1.83c0.86,0,1.75,0.3,2.72,0.9v-2.24
			c-0.84-0.46-2.12-0.8-2.91-0.8c-2.6,0-3.91,1.61-3.91,3.8v6.39h-2.1v0.27l4.48,4.39V73.95"/>
		<path id="path91" class="st0" d="M570.84,73.95v-2.8h0.05c1.22,2.14,2.37,3.03,3.5,3.03c0.97,0,1.88-0.46,2.88-1.4l-1.26-2.1
			c-0.73,0.72-1.67,1.21-2.23,1.21c-1.64,0-2.93-1.67-2.93-3.74v-6.32h-2.38v12.12H570.84"/>
		<path id="path93" class="st0" d="M601.72,70.77c-1.38,0.94-2.29,1.22-3.35,1.22c-2.18,0-3.68-1.68-3.68-4.13
			c0-2.5,1.61-4.01,4.08-4.01c1.02,0,1.99,0.27,3.21,0.8V62.3c-0.82-0.38-2.35-0.69-3.62-0.69c-3.61,0-6.13,2.48-6.13,6.04
			c0,4.01,2.3,6.54,5.97,6.54c1.4,0,2.34-0.33,3.5-0.83V70.77"/>
		<path id="path95" class="st0" d="M583.6,61.83h2.39v12.11h-2.39V61.83z"/>
		<g id="g97">
			<g>
				<defs>
					<polyline id="SVGID_3_" points="407.97,115.85 407.97,56.81 607.97,56.81 607.97,115.85 					"/>
				</defs>
				<clipPath id="SVGID_4_">
					<use xlink:href="#SVGID_3_"  style="overflow:visible;"/>
				</clipPath>
				<g id="g99" class="st2">
					<path id="path105" class="st0" d="M586.06,78.3c0.23-0.58-0.17-1.41-0.89-1.83c-0.72-0.42-1.49-0.29-1.71,0.3
						c-0.22,0.59,0.18,1.41,0.9,1.83C585.08,79.03,585.84,78.89,586.06,78.3"/>
					<path id="path107" class="st0" d="M479.27,77.32c-0.42,0-0.6-0.07-0.77-0.26c-0.07-0.07-0.09-0.15-0.12-0.3l-2.14-8.11
						c-0.5-2.85-4-5.69-8.55-5.69h-6.33l1.1,4.17h4.07c0.42,0,0.74,0.15,1.01,0.46c0.1,0.12,0.23,0.3,0.25,0.49l1.69,7.09
						c0.5,2.85,3.51,5.99,8.06,5.99h6.49l-0.83-3.84H479.27z M480.73,72.38l0.72,2.63h6.59c0.81,3.81,0.17,7.33-2.14,9.64
						c-4.68,4.68-14.46,3.09-21.74-3.89c-1.14-1.08-2.1-2.25-2.97-3.45h3.97l-0.92-2.63h-4.74c-0.45-0.83-0.88-1.65-1.2-2.49h5.62
						l-0.9-2.63h-5.52c-0.94-4.02-0.34-7.77,2.03-10.15c4.62-4.62,14.37-2.99,21.65,3.98c1.27,1.21,2.33,2.52,3.28,3.86h-5.1
						l0.78,2.63h5.96c0.44,0.83,0.84,1.66,1.15,2.5H480.73"/>
				</g>
			</g>
		</g>
	</g>
</g>
</svg>
