<?xml version="1.0" encoding="utf-8"?>
<!-- Generator: Adobe Illustrator 23.0.5, SVG Export Plug-In . SVG Version: 6.00 Build 0)  -->
<svg version="1.1" id="Capa_1" xmlns="http://www.w3.org/2000/svg" xmlns:xlink="http://www.w3.org/1999/xlink" x="0px" y="0px"
	 viewBox="0 0 200 200" style="enable-background:new 0 0 200 200;" xml:space="preserve">
<style type="text/css">
	.st0{fill:#FFFFFF;}
</style>
<g>
	<path class="st0" d="M105.13,37.79c-1.56-6.61-3.07-13.06-4.6-19.5c-1.17-4.9-2.03-5.58-7.05-5.58c-24.91-0.01-49.82-0.01-74.73,0
		C7.55,12.71,0.17,20.05,0.17,31.15C0.16,68.64,0.42,106.13,0,143.62c-0.12,10.82,8.4,19.5,19.49,19.31
		c23.92-0.42,47.85-0.06,71.77-0.21c3.09-0.02,4.22,0.83,4.77,3.9c0.99,5.56,2.78,10.97,3.81,16.53c0.67,3.59,2.6,4.58,5.89,4.58
		c25.4-0.05,50.81,0.01,76.21-0.05c10.83-0.02,18.05-7.37,18.05-18.16c0.01-37.86,0-75.72,0-113.58c0-10.7-7.4-18.14-18.05-18.14
		c-21.58-0.01-43.16,0-64.74,0C113.27,37.79,109.34,37.79,105.13,37.79z"/>
	<path d="M105.13,37.79c4.2,0,8.14,0,12.07,0c21.58,0,43.16,0,64.74,0c10.65,0,18.05,7.44,18.05,18.14c0,37.86,0,75.72,0,113.58
		c0,10.79-7.22,18.14-18.05,18.16c-25.4,0.06-50.81,0-76.21,0.05c-3.29,0.01-5.23-0.98-5.89-4.58c-1.03-5.55-2.83-10.97-3.81-16.53
		c-0.55-3.07-1.68-3.92-4.77-3.9c-23.92,0.14-47.85-0.21-71.77,0.21C8.4,163.12-0.12,154.44,0,143.62
		c0.42-37.48,0.16-74.98,0.16-112.47c0-11.1,7.39-18.44,18.58-18.44c24.91-0.01,49.82-0.01,74.73,0c5.02,0,5.88,0.69,7.05,5.58
		C102.07,24.74,103.58,31.19,105.13,37.79z M123.86,154.34c-0.24-1.31-0.32-1.91-0.46-2.5c-9.97-42.27-19.97-84.52-29.84-126.81
		c-0.68-2.91-1.66-3.96-4.8-3.94c-23.31,0.15-46.61,0.07-69.92,0.09c-7.95,0-10.44,2.48-10.44,10.34c0,37.37,0,74.73,0,112.1
		c0,8.4,2.33,10.72,10.79,10.73c33.42,0.01,66.84,0,100.26,0C120.77,154.34,122.1,154.34,123.86,154.34z M141.24,119.3
		c-3.83,3.53-8.24,7.45-12.45,11.57c-0.74,0.73-1.13,2.36-0.92,3.43c0.9,4.59,1.57,9.33,3.28,13.63c3.57,8.97,1.3,15.58-6.36,21.15
		c-3.66,2.66-6.62,6.29-10.6,10.15c23.3,0,45.37,0,67.44,0c7.65,0,10.13-2.5,10.13-10.21c0-37.5,0-74.99,0-112.49
		c0-7.77-2.7-10.5-10.41-10.5c-23.43-0.01-46.87,0-70.3,0c-1.17,0-2.35,0-3.95,0c2.01,8.63,3.9,16.73,5.79,24.81
		c8.31,0,16.37,0,24.74,0c0-3.81,0.08-7.37-0.02-10.92c-0.09-3.01,0.87-5.34,4.16-5.32c3.25,0.02,4.26,2.37,4.22,5.34
		c-0.05,3.65-0.01,7.29-0.01,11.16c8.24,0,16,0.03,23.75-0.02c2.84-0.02,5.02,0.9,5.13,3.99c0.12,3.34-2.08,4.35-5.14,4.28
		c-3.9-0.1-7.81-0.02-11.73-0.02c-1.57,11.7-5.25,22.19-11.35,31.86c1.14,1.38,1.98,2.81,3.2,3.8c6.09,4.95,12.21,9.86,18.45,14.62
		c1.92,1.47,3.13,3.18,2.03,5.27c-0.67,1.27-2.47,2.42-3.92,2.65c-1.22,0.2-2.86-0.75-3.98-1.61
		C155.32,130.45,148.32,124.88,141.24,119.3z M125.27,123.45c3.86-4.04,7.12-7.21,10.04-10.67c0.66-0.78,0.56-2.71,0.11-3.82
		c-2.25-5.44-5.04-10.68-7.03-16.2c-1.53-4.23-2.16-8.78-3.2-13.24c-3.38,0-6.65,0-10.25,0
		C118.33,93.97,121.67,108.16,125.27,123.45z M133.97,79.5c1.1,8.54,3.4,16.29,7.48,23.46c0.43,0.06,0.87,0.13,1.3,0.19
		c2.46-7.72,4.91-15.45,7.52-23.65C144.26,79.5,139.37,79.5,133.97,79.5z M103.71,162.81c0.98,4.21,1.88,8.05,2.75,11.79
		c4-4.03,7.77-7.83,11.52-11.61c-0.08-0.02-0.39-0.17-0.71-0.17C112.97,162.8,108.66,162.81,103.71,162.81z"/>
	<path class="st0" d="M123.86,154.34c-1.76,0-3.08,0-4.41,0c-33.42,0-66.84,0-100.26,0c-8.46,0-10.79-2.33-10.79-10.73
		c0-37.37,0-74.73,0-112.1c0-7.86,2.49-10.34,10.44-10.34c23.31-0.01,46.62,0.06,69.92-0.09c3.14-0.02,4.12,1.03,4.8,3.94
		c9.87,42.29,19.87,84.55,29.84,126.81C123.53,152.43,123.62,153.03,123.86,154.34z M65.98,66.86c-1.17,6.24-5.97,10.84-12.32,12.18
		c-7.3,1.54-13.43-1.01-17.53-7.31c-3.72-5.7-3.72-12.69,0.01-18.06c4.23-6.1,12.34-10.7,22.07-5.49c2.57,1.38,4.72,0.8,5.95-1.61
		c1.25-2.45,0.25-4.55-2.24-5.79c-1.1-0.55-2.21-1.09-3.37-1.47c-15.41-5.11-30.33,4.01-32.98,20.14
		C23.31,73.1,33.58,86.17,47.6,87.47C61.75,88.79,74.74,77.71,75,64.1c0.08-3.97-1.24-5.51-5.09-5.56
		c-6.29-0.08-12.58-0.03-18.86-0.02c-2.81,0.01-4.91,1.06-4.98,4.18c-0.07,3.23,2.07,4.16,4.89,4.15
		C55.89,66.86,60.82,66.86,65.98,66.86z"/>
	<path class="st0" d="M141.24,119.3c7.08,5.58,14.08,11.16,21.17,16.61c1.12,0.87,2.76,1.81,3.98,1.61
		c1.45-0.24,3.25-1.38,3.92-2.65c1.1-2.09-0.1-3.8-2.03-5.27c-6.24-4.76-12.37-9.66-18.45-14.62c-1.21-0.99-2.06-2.42-3.2-3.8
		c6.1-9.67,9.78-20.16,11.35-31.86c3.92,0,7.83-0.07,11.73,0.02c3.05,0.07,5.25-0.94,5.14-4.28c-0.11-3.09-2.29-4.01-5.13-3.99
		c-7.75,0.05-15.51,0.02-23.75,0.02c0-3.86-0.04-7.51,0.01-11.16c0.04-2.97-0.98-5.32-4.22-5.34c-3.29-0.02-4.24,2.3-4.16,5.32
		c0.1,3.55,0.02,7.11,0.02,10.92c-8.37,0-16.43,0-24.74,0c-1.89-8.08-3.77-16.18-5.79-24.81c1.61,0,2.78,0,3.95,0
		c23.43,0,46.87,0,70.3,0c7.71,0,10.41,2.73,10.41,10.5c0,37.5,0,74.99,0,112.49c0,7.71-2.48,10.21-10.13,10.21
		c-22.07,0.01-44.13,0-67.44,0c3.98-3.87,6.93-7.5,10.6-10.15c7.67-5.57,9.94-12.18,6.36-21.15c-1.71-4.3-2.38-9.04-3.28-13.63
		c-0.21-1.07,0.17-2.7,0.92-3.43C133,126.75,137.41,122.82,141.24,119.3z"/>
	<path class="st0" d="M125.27,123.45c-3.6-15.29-6.94-29.48-10.34-43.93c3.6,0,6.87,0,10.25,0c1.04,4.46,1.67,9.01,3.2,13.24
		c2,5.53,4.79,10.76,7.03,16.2c0.46,1.11,0.55,3.04-0.11,3.82C132.39,116.24,129.13,119.41,125.27,123.45z"/>
	<path class="st0" d="M133.97,79.5c5.4,0,10.29,0,16.3,0c-2.61,8.2-5.06,15.93-7.52,23.65c-0.43-0.06-0.87-0.13-1.3-0.19
		C137.37,95.79,135.07,88.04,133.97,79.5z"/>
	<path class="st0" d="M103.71,162.81c4.95,0,9.26-0.01,13.56,0.01c0.32,0,0.63,0.15,0.71,0.17c-3.75,3.78-7.52,7.58-11.52,11.61
		C105.59,170.86,104.69,167.01,103.71,162.81z"/>
	<path d="M65.98,66.86c-5.17,0-10.09-0.01-15.02,0c-2.82,0-4.96-0.93-4.89-4.15c0.07-3.12,2.17-4.18,4.98-4.18
		c6.29-0.02,12.58-0.06,18.86,0.02c3.85,0.05,5.17,1.59,5.09,5.56c-0.26,13.61-13.26,24.69-27.4,23.37
		c-14.02-1.31-24.3-14.37-22.05-28.03c2.65-16.13,17.57-25.25,32.98-20.14c1.16,0.38,2.28,0.92,3.37,1.47
		c2.49,1.24,3.49,3.34,2.24,5.79c-1.23,2.41-3.38,2.99-5.95,1.61c-9.72-5.2-17.83-0.61-22.07,5.49c-3.73,5.37-3.72,12.36-0.01,18.06
		c4.1,6.29,10.24,8.85,17.53,7.31C60.01,77.7,64.81,73.1,65.98,66.86z"/>
</g>
</svg>
